<?xml version="1.0" encoding="UTF-8" standalone="no"?>
<!-- Generator: Adobe Illustrator 26.1.0, SVG Export Plug-In . SVG Version: 6.00 Build 0)  -->

<svg
   version="1.1"
   id="Layer_1"
   x="0px"
   y="0px"
   viewBox="0 0 1161.88 723.67999"
   xml:space="preserve"
   sodipodi:docname="ITT_Logo_eng.svg"
   inkscape:version="1.2.1 (9c6d41e410, 2022-07-14)"
   width="1161.88"
   height="723.67999"
   xmlns:inkscape="http://www.inkscape.org/namespaces/inkscape"
   xmlns:sodipodi="http://sodipodi.sourceforge.net/DTD/sodipodi-0.dtd"
   xmlns="http://www.w3.org/2000/svg"
   xmlns:svg="http://www.w3.org/2000/svg"><defs
   id="defs99">
		
	</defs><sodipodi:namedview
   id="namedview97"
   pagecolor="#505050"
   bordercolor="#ffffff"
   borderopacity="1"
   inkscape:showpageshadow="0"
   inkscape:pageopacity="0"
   inkscape:pagecheckerboard="1"
   inkscape:deskcolor="#505050"
   showgrid="false"
   inkscape:zoom="0.3337544"
   inkscape:cx="594.74871"
   inkscape:cy="299.62152"
   inkscape:window-width="1920"
   inkscape:window-height="1137"
   inkscape:window-x="1912"
   inkscape:window-y="-8"
   inkscape:window-maximized="1"
   inkscape:current-layer="g94" />
<style
   type="text/css"
   id="style2">
	.st0{display:none;fill:#540B0E;}
	.st1{display:none;fill:#1B263B;}
	.st2{display:none;fill:#003E1F;}
	.st3{display:none;fill:#020F3B;}
	.st4{fill:#00687F;}
	.st5{fill:#00C1D4;}
</style>

<g
   id="g94"
   transform="translate(-419.06,-638.16)">
	<g
   id="g16"
   style="display:inline">
			<path
   class="st4"
   d="m 603.61,894.26 55.61,17.26 v 216.43 H 779.58 V 894.26 Z"
   id="path6" />
			<path
   class="st4"
   d="m 1139.09,894.26 v 288.44 l 17.01,-54.75 h 102.72 V 894.26 Z"
   id="path8" />
			<path
   class="st4"
   d="m 1340.8,776.76 v -83 h -242.65 v 100.26 h 298.25 z m -523.23,17.26 h 242.59 V 693.76 H 817.57 Z"
   id="path10" />
			<rect
   x="899.46997"
   y="894.26001"
   class="st4"
   width="119.73"
   height="233.69"
   id="rect12" />
			<path
   class="st5"
   d="M 757.97,693.76 H 659.22 V 794.02 H 779.58 V 638.16 Z"
   id="path14" />
		</g>
	<g
   id="g92"
   style="display:inline">
		<path
   class="st4"
   d="m 419.06,1273.46 v -51.13 h 9.49 v 51.13 z"
   id="path20" />
		<path
   class="st4"
   d="m 446.74,1273.46 v -51.13 h 7.81 l 32.06,39.37 h -3.87 v -39.37 h 9.42 v 51.13 h -7.81 l -32.06,-39.37 h 3.87 v 39.37 z"
   id="path22" />
		<path
   class="st4"
   d="m 526.14,1274.19 c -3.99,0 -7.81,-0.57 -11.47,-1.72 -3.65,-1.14 -6.55,-2.62 -8.69,-4.42 l 3.29,-7.38 c 2.04,1.61 4.58,2.95 7.6,4.02 3.02,1.07 6.11,1.61 9.28,1.61 2.68,0 4.84,-0.29 6.5,-0.88 1.65,-0.58 2.87,-1.38 3.65,-2.37 0.78,-1 1.17,-2.13 1.17,-3.4 0,-1.56 -0.56,-2.81 -1.68,-3.76 -1.12,-0.95 -2.57,-1.7 -4.35,-2.26 -1.78,-0.56 -3.75,-1.08 -5.92,-1.57 -2.17,-0.49 -4.33,-1.06 -6.5,-1.72 -2.17,-0.66 -4.14,-1.51 -5.92,-2.56 -1.78,-1.05 -3.23,-2.45 -4.35,-4.2 -1.12,-1.75 -1.68,-3.99 -1.68,-6.72 0,-2.78 0.74,-5.32 2.23,-7.63 1.48,-2.31 3.75,-4.16 6.79,-5.55 3.04,-1.39 6.9,-2.08 11.58,-2.08 3.07,0 6.11,0.39 9.13,1.17 3.02,0.78 5.65,1.9 7.89,3.36 l -2.99,7.38 c -2.29,-1.36 -4.65,-2.37 -7.08,-3.03 -2.44,-0.66 -4.77,-0.99 -7.01,-0.99 -2.63,0 -4.76,0.32 -6.39,0.95 -1.63,0.63 -2.82,1.46 -3.58,2.48 -0.76,1.02 -1.13,2.19 -1.13,3.51 0,1.56 0.55,2.81 1.64,3.76 1.1,0.95 2.53,1.69 4.31,2.23 1.78,0.54 3.76,1.06 5.95,1.57 2.19,0.51 4.37,1.08 6.54,1.72 2.17,0.63 4.14,1.46 5.92,2.48 1.78,1.02 3.21,2.41 4.31,4.16 1.1,1.75 1.64,3.97 1.64,6.65 0,2.73 -0.74,5.25 -2.23,7.56 -1.49,2.31 -3.76,4.16 -6.83,5.55 -3.08,1.39 -6.95,2.08 -11.62,2.08 z"
   id="path24" />
		<path
   class="st4"
   d="m 570.25,1273.46 v -43.09 H 553.3 v -8.03 h 43.38 v 8.03 h -16.94 v 43.09 z"
   id="path26" />
		<path
   class="st4"
   d="m 608.23,1273.46 v -51.13 h 9.49 v 51.13 z"
   id="path28" />
		<path
   class="st4"
   d="m 646.28,1273.46 v -43.09 h -16.94 v -8.03 h 43.38 v 8.03 h -16.94 v 43.09 z"
   id="path30" />
		<path
   class="st4"
   d="m 705.3,1274.19 c -7.01,0 -12.5,-1.97 -16.47,-5.92 -3.97,-3.94 -5.95,-9.64 -5.95,-17.09 v -28.85 h 9.5 v 28.48 c 0,5.26 1.13,9.08 3.4,11.47 2.26,2.39 5.47,3.58 9.6,3.58 4.14,0 7.33,-1.19 9.57,-3.58 2.24,-2.39 3.36,-6.21 3.36,-11.47 v -28.48 h 9.35 v 28.85 c 0,7.45 -1.98,13.15 -5.95,17.09 -3.99,3.95 -9.45,5.92 -16.41,5.92 z"
   id="path32" />
		<path
   class="st4"
   d="m 754.74,1273.46 v -43.09 H 737.8 v -8.03 h 43.38 v 8.03 h -16.94 v 43.09 z"
   id="path34" />
		<path
   class="st4"
   d="m 802.22,1265.5 h 28.85 v 7.96 h -38.34 v -51.13 h 37.32 v 7.96 h -27.83 z m -0.73,-21.91 h 25.42 v 7.82 h -25.42 z"
   id="path36" />
		<path
   class="st4"
   d="m 894.53,1274.19 c -3.99,0 -7.67,-0.66 -11.03,-1.97 -3.36,-1.31 -6.28,-3.15 -8.76,-5.51 -2.48,-2.36 -4.41,-5.14 -5.77,-8.33 -1.36,-3.19 -2.04,-6.68 -2.04,-10.48 0,-3.8 0.68,-7.29 2.04,-10.48 1.36,-3.19 3.29,-5.96 5.77,-8.33 2.48,-2.36 5.4,-4.2 8.76,-5.51 3.36,-1.31 7.01,-1.97 10.96,-1.97 3.99,0 7.66,0.66 10.99,1.97 3.33,1.32 6.24,3.15 8.73,5.51 2.48,2.36 4.41,5.14 5.77,8.33 1.36,3.19 2.04,6.68 2.04,10.48 0,3.8 -0.68,7.3 -2.04,10.52 -1.36,3.21 -3.29,5.99 -5.77,8.33 -2.48,2.34 -5.39,4.16 -8.73,5.48 -3.33,1.31 -6.97,1.96 -10.92,1.96 z m -0.07,-8.32 c 2.58,0 4.97,-0.44 7.16,-1.32 2.19,-0.88 4.09,-2.13 5.7,-3.76 1.61,-1.63 2.86,-3.53 3.76,-5.7 0.9,-2.17 1.35,-4.56 1.35,-7.19 0,-2.63 -0.45,-5.03 -1.35,-7.19 -0.9,-2.17 -2.15,-4.06 -3.76,-5.7 -1.61,-1.63 -3.51,-2.89 -5.7,-3.76 -2.19,-0.88 -4.58,-1.31 -7.16,-1.31 -2.58,0 -4.95,0.44 -7.12,1.31 -2.17,0.88 -4.07,2.13 -5.7,3.76 -1.63,1.63 -2.9,3.53 -3.8,5.7 -0.9,2.17 -1.35,4.56 -1.35,7.19 0,2.58 0.45,4.97 1.35,7.16 0.9,2.19 2.15,4.1 3.76,5.73 1.61,1.63 3.51,2.88 5.7,3.76 2.19,0.88 4.58,1.32 7.16,1.32 z"
   id="path38" />
		<path
   class="st4"
   d="m 945.95,1273.46 h -9.49 v -51.13 h 37.32 v 7.96 h -27.83 z m -0.8,-27.6 h 25.49 v 8.03 h -25.49 z"
   id="path40" />
		<path
   class="st4"
   d="m 1021.4,1265.5 h 28.85 v 7.96 h -38.34 v -51.13 h 37.32 v 7.96 h -27.83 z m -0.73,-21.91 h 25.42 v 7.82 h -25.42 z"
   id="path42" />
		<path
   class="st4"
   d="m 1065.22,1273.46 v -51.13 h 7.81 l 32.06,39.37 h -3.87 v -39.37 h 9.42 v 51.13 h -7.81 l -32.06,-39.37 h 3.87 v 39.37 z"
   id="path44" />
		<path
   class="st4"
   d="m 1152.65,1274.19 c -3.99,0 -7.66,-0.65 -10.99,-1.94 -3.34,-1.29 -6.25,-3.12 -8.73,-5.48 -2.48,-2.36 -4.41,-5.15 -5.77,-8.36 -1.36,-3.21 -2.04,-6.72 -2.04,-10.52 0,-3.8 0.68,-7.3 2.04,-10.52 1.36,-3.21 3.3,-6 5.81,-8.36 2.51,-2.36 5.44,-4.19 8.8,-5.48 3.36,-1.29 7.04,-1.94 11.03,-1.94 4.33,0 8.24,0.71 11.72,2.12 3.48,1.41 6.41,3.48 8.8,6.21 l -5.99,5.84 c -2,-2 -4.15,-3.47 -6.46,-4.42 -2.31,-0.95 -4.86,-1.42 -7.63,-1.42 -2.68,0 -5.16,0.44 -7.45,1.31 -2.29,0.88 -4.26,2.12 -5.92,3.72 -1.66,1.61 -2.93,3.51 -3.83,5.7 -0.9,2.19 -1.35,4.6 -1.35,7.23 0,2.58 0.45,4.97 1.35,7.16 0.9,2.19 2.18,4.1 3.83,5.73 1.65,1.63 3.6,2.88 5.84,3.76 2.24,0.88 4.72,1.32 7.45,1.32 2.53,0 4.98,-0.4 7.34,-1.21 2.36,-0.8 4.61,-2.15 6.76,-4.05 l 5.4,7.08 c -2.68,2.14 -5.78,3.76 -9.31,4.86 -3.53,1.12 -7.1,1.66 -10.7,1.66 z m 11.03,-7.74 v -19.14 h 8.98 v 20.38 z"
   id="path46" />
		<path
   class="st4"
   d="m 1189.53,1273.46 v -51.13 h 9.49 v 51.13 z"
   id="path48" />
		<path
   class="st4"
   d="m 1217.21,1273.46 v -51.13 h 7.81 l 32.06,39.37 h -3.87 v -39.37 h 9.42 v 51.13 h -7.81 l -32.06,-39.37 h 3.87 v 39.37 z"
   id="path50" />
		<path
   class="st4"
   d="m 1290.25,1265.5 h 28.85 v 7.96 h -38.34 v -51.13 h 37.32 v 7.96 h -27.83 z m -0.73,-21.91 h 25.42 v 7.82 h -25.42 z"
   id="path52" />
		<path
   class="st4"
   d="m 1343.57,1265.5 h 28.85 v 7.96 h -38.34 v -51.13 h 37.32 v 7.96 h -27.83 z m -0.73,-21.91 h 25.42 v 7.82 h -25.42 z"
   id="path54" />
		<path
   class="st4"
   d="m 1387.39,1273.46 v -51.13 h 21.03 c 4.53,0 8.41,0.73 11.65,2.19 3.24,1.46 5.73,3.55 7.49,6.28 1.75,2.73 2.63,5.96 2.63,9.71 0,3.75 -0.88,6.97 -2.63,9.68 -1.75,2.7 -4.25,4.77 -7.49,6.21 -3.24,1.44 -7.12,2.15 -11.65,2.15 h -15.78 l 4.24,-4.31 v 19.21 h -9.49 z m 9.49,-18.18 -4.24,-4.53 h 15.34 c 4.19,0 7.34,-0.9 9.46,-2.7 2.12,-1.8 3.18,-4.31 3.18,-7.52 0,-3.26 -1.06,-5.77 -3.18,-7.52 -2.12,-1.75 -5.27,-2.63 -9.46,-2.63 h -15.34 l 4.24,-4.67 z m 23.96,18.18 -12.93,-18.55 h 10.15 l 13,18.55 z"
   id="path56" />
		<path
   class="st4"
   d="m 1445.16,1273.46 v -51.13 h 9.49 v 51.13 z"
   id="path58" />
		<path
   class="st4"
   d="m 1472.84,1273.46 v -51.13 h 7.81 l 32.06,39.37 h -3.87 v -39.37 h 9.42 v 51.13 h -7.81 l -32.06,-39.37 h 3.87 v 39.37 z"
   id="path60" />
		<path
   class="st4"
   d="m 1560.27,1274.19 c -3.99,0 -7.66,-0.65 -10.99,-1.94 -3.34,-1.29 -6.25,-3.12 -8.73,-5.48 -2.48,-2.36 -4.41,-5.15 -5.77,-8.36 -1.36,-3.21 -2.04,-6.72 -2.04,-10.52 0,-3.8 0.68,-7.3 2.04,-10.52 1.36,-3.21 3.3,-6 5.81,-8.36 2.51,-2.36 5.44,-4.19 8.8,-5.48 3.36,-1.29 7.04,-1.94 11.03,-1.94 4.33,0 8.24,0.71 11.72,2.12 3.48,1.41 6.41,3.48 8.8,6.21 l -5.99,5.84 c -2,-2 -4.15,-3.47 -6.46,-4.42 -2.31,-0.95 -4.86,-1.42 -7.63,-1.42 -2.68,0 -5.16,0.44 -7.45,1.31 -2.29,0.88 -4.26,2.12 -5.92,3.72 -1.66,1.61 -2.93,3.51 -3.83,5.7 -0.9,2.19 -1.35,4.6 -1.35,7.23 0,2.58 0.45,4.97 1.35,7.16 0.9,2.19 2.18,4.1 3.83,5.73 1.65,1.63 3.6,2.88 5.84,3.76 2.24,0.88 4.72,1.32 7.45,1.32 2.53,0 4.98,-0.4 7.34,-1.21 2.36,-0.8 4.61,-2.15 6.76,-4.05 l 5.4,7.08 c -2.68,2.14 -5.78,3.76 -9.31,4.86 -3.53,1.12 -7.1,1.66 -10.7,1.66 z m 11.03,-7.74 v -19.14 h 8.98 v 20.38 z"
   id="path62" />
		<path
   class="st4"
   d="m 613.67,1361.11 v -43.09 h -16.94 v -8.03 h 43.38 v 8.03 h -16.94 v 43.09 z"
   id="path64" />
		<path
   class="st4"
   d="m 661.14,1361.11 h -9.49 v -51.13 h 9.49 z m 27.17,-21.91 h -27.97 v -8.11 h 27.97 z m -0.73,-29.22 h 9.5 v 51.13 h -9.5 z"
   id="path66" />
		<path
   class="st4"
   d="m 724.69,1353.15 h 28.85 v 7.96 H 715.2 v -51.13 h 37.32 v 7.96 h -27.83 z m -0.73,-21.91 h 25.42 v 7.82 h -25.42 z"
   id="path68" />
		<path
   class="st4"
   d="m 768.51,1361.11 v -51.13 h 21.03 c 4.53,0 8.41,0.73 11.65,2.19 3.24,1.46 5.73,3.55 7.49,6.28 1.75,2.73 2.63,5.96 2.63,9.71 0,3.75 -0.88,6.97 -2.63,9.68 -1.75,2.7 -4.25,4.77 -7.49,6.21 -3.24,1.44 -7.12,2.15 -11.65,2.15 h -15.78 l 4.24,-4.31 v 19.21 h -9.49 z m 9.49,-18.19 -4.24,-4.53 h 15.34 c 4.19,0 7.34,-0.9 9.46,-2.7 2.12,-1.8 3.18,-4.31 3.18,-7.52 0,-3.26 -1.06,-5.77 -3.18,-7.52 -2.12,-1.75 -5.27,-2.63 -9.46,-2.63 h -15.34 l 4.24,-4.67 z m 23.96,18.19 -12.93,-18.55 h 10.15 l 13,18.55 z"
   id="path70" />
		<path
   class="st4"
   d="m 826.28,1361.11 v -51.13 h 7.81 l 22.35,37.32 h -4.09 l 21.98,-37.32 h 7.81 l 0.07,51.13 h -8.98 l -0.07,-37.03 h 1.9 l -18.7,31.19 h -4.24 l -18.99,-31.19 h 2.19 v 37.03 z"
   id="path72" />
		<path
   class="st4"
   d="m 924.37,1361.84 c -3.99,0 -7.67,-0.66 -11.03,-1.97 -3.36,-1.31 -6.28,-3.15 -8.76,-5.51 -2.48,-2.36 -4.41,-5.14 -5.77,-8.33 -1.36,-3.19 -2.04,-6.68 -2.04,-10.48 0,-3.8 0.68,-7.29 2.04,-10.48 1.36,-3.19 3.29,-5.96 5.77,-8.33 2.48,-2.36 5.4,-4.2 8.76,-5.51 3.36,-1.31 7.01,-1.97 10.96,-1.97 3.99,0 7.66,0.66 10.99,1.97 3.33,1.32 6.24,3.15 8.73,5.51 2.48,2.36 4.41,5.14 5.77,8.33 1.36,3.19 2.04,6.68 2.04,10.48 0,3.8 -0.68,7.3 -2.04,10.52 -1.36,3.21 -3.29,5.99 -5.77,8.33 -2.48,2.34 -5.39,4.16 -8.73,5.48 -3.34,1.3 -6.98,1.96 -10.92,1.96 z m -0.07,-8.33 c 2.58,0 4.97,-0.44 7.16,-1.32 2.19,-0.88 4.09,-2.13 5.7,-3.76 1.61,-1.63 2.86,-3.53 3.76,-5.7 0.9,-2.17 1.35,-4.56 1.35,-7.19 0,-2.63 -0.45,-5.03 -1.35,-7.19 -0.9,-2.17 -2.15,-4.07 -3.76,-5.7 -1.61,-1.63 -3.51,-2.89 -5.7,-3.76 -2.19,-0.88 -4.58,-1.32 -7.16,-1.32 -2.58,0 -4.95,0.44 -7.12,1.32 -2.17,0.88 -4.07,2.13 -5.7,3.76 -1.63,1.63 -2.9,3.53 -3.8,5.7 -0.9,2.17 -1.35,4.56 -1.35,7.19 0,2.58 0.45,4.97 1.35,7.16 0.9,2.19 2.15,4.1 3.76,5.73 1.61,1.63 3.51,2.88 5.7,3.76 2.19,0.88 4.58,1.32 7.16,1.32 z"
   id="path74" />
		<path
   class="st4"
   d="m 966.29,1361.11 v -51.13 h 22.35 c 5.55,0 10.42,1.07 14.61,3.21 4.19,2.14 7.45,5.11 9.79,8.91 2.34,3.8 3.51,8.28 3.51,13.44 0,5.11 -1.17,9.58 -3.51,13.4 -2.34,3.82 -5.6,6.81 -9.79,8.95 -4.19,2.14 -9.06,3.21 -14.61,3.21 h -22.35 z m 9.5,-8.04 h 12.42 c 3.85,0 7.17,-0.73 9.97,-2.19 2.8,-1.46 4.97,-3.51 6.5,-6.14 1.53,-2.63 2.3,-5.7 2.3,-9.2 0,-3.55 -0.77,-6.63 -2.3,-9.24 -1.53,-2.6 -3.7,-4.64 -6.5,-6.1 -2.8,-1.46 -6.12,-2.19 -9.97,-2.19 h -12.42 z"
   id="path76" />
		<path
   class="st4"
   d="m 1041.38,1361.11 v -20.23 l 2.12,5.84 -22.2,-36.74 h 10.15 l 17.82,29.58 h -5.7 l 17.97,-29.58 h 9.35 l -22.2,36.74 2.19,-5.84 v 20.23 z"
   id="path78" />
		<path
   class="st4"
   d="m 1080.74,1361.11 v -51.13 h 7.81 l 32.06,39.37 h -3.87 v -39.37 h 9.42 v 51.13 h -7.81 l -32.06,-39.37 h 3.87 v 39.37 z"
   id="path80" />
		<path
   class="st4"
   d="m 1137.05,1361.11 23.01,-51.13 h 9.35 l 23.08,51.13 h -9.93 l -19.79,-46.09 h 3.8 l -19.72,46.09 z m 10.59,-11.83 2.56,-7.45 h 27.61 l 2.56,7.45 z"
   id="path82" />
		<path
   class="st4"
   d="m 1203.37,1361.11 v -51.13 h 7.81 l 22.35,37.32 h -4.09 l 21.98,-37.32 h 7.81 l 0.07,51.13 h -8.98 l -0.07,-37.03 h 1.9 l -18.7,31.19 h -4.24 l -18.99,-31.19 h 2.19 v 37.03 z"
   id="path84" />
		<path
   class="st4"
   d="m 1277.51,1361.11 v -51.13 h 9.49 v 51.13 z"
   id="path86" />
		<path
   class="st4"
   d="m 1328.85,1361.84 c -3.9,0 -7.51,-0.65 -10.85,-1.94 -3.34,-1.29 -6.23,-3.12 -8.69,-5.48 -2.46,-2.36 -4.37,-5.15 -5.73,-8.36 -1.36,-3.21 -2.04,-6.72 -2.04,-10.52 0,-3.8 0.68,-7.3 2.04,-10.52 1.36,-3.21 3.29,-6 5.77,-8.36 2.48,-2.36 5.38,-4.19 8.69,-5.48 3.31,-1.29 6.94,-1.94 10.88,-1.94 4.19,0 8.01,0.72 11.47,2.15 3.46,1.44 6.38,3.57 8.76,6.39 l -6.13,5.77 c -1.85,-2 -3.92,-3.49 -6.21,-4.49 -2.29,-1 -4.77,-1.5 -7.45,-1.5 -2.68,0 -5.12,0.44 -7.34,1.32 -2.22,0.88 -4.14,2.12 -5.77,3.72 -1.63,1.61 -2.9,3.51 -3.8,5.7 -0.9,2.19 -1.35,4.6 -1.35,7.23 0,2.63 0.45,5.04 1.35,7.23 0.9,2.19 2.17,4.09 3.8,5.7 1.63,1.61 3.55,2.85 5.77,3.73 2.22,0.88 4.66,1.32 7.34,1.32 2.68,0 5.16,-0.5 7.45,-1.5 2.29,-1 4.36,-2.52 6.21,-4.56 l 6.13,5.84 c -2.39,2.78 -5.31,4.89 -8.76,6.35 -3.46,1.47 -7.3,2.2 -11.54,2.2 z"
   id="path88" />
		<path
   class="st4"
   d="m 1378.44,1361.84 c -3.99,0 -7.81,-0.57 -11.47,-1.72 -3.65,-1.14 -6.55,-2.62 -8.69,-4.42 l 3.29,-7.38 c 2.04,1.61 4.58,2.95 7.6,4.02 3.02,1.07 6.11,1.61 9.28,1.61 2.68,0 4.84,-0.29 6.5,-0.88 1.65,-0.58 2.87,-1.38 3.65,-2.37 0.78,-1 1.17,-2.13 1.17,-3.4 0,-1.56 -0.56,-2.81 -1.68,-3.76 -1.12,-0.95 -2.57,-1.7 -4.35,-2.26 -1.78,-0.56 -3.75,-1.08 -5.92,-1.57 -2.17,-0.49 -4.33,-1.06 -6.5,-1.72 -2.17,-0.66 -4.14,-1.51 -5.92,-2.56 -1.78,-1.05 -3.23,-2.45 -4.35,-4.2 -1.12,-1.75 -1.68,-3.99 -1.68,-6.72 0,-2.78 0.74,-5.32 2.23,-7.63 1.48,-2.31 3.75,-4.16 6.79,-5.55 3.04,-1.39 6.9,-2.08 11.58,-2.08 3.07,0 6.11,0.39 9.13,1.17 3.02,0.78 5.65,1.9 7.89,3.36 l -2.99,7.38 c -2.29,-1.36 -4.65,-2.37 -7.08,-3.03 -2.44,-0.66 -4.77,-0.99 -7.01,-0.99 -2.63,0 -4.76,0.32 -6.39,0.95 -1.63,0.63 -2.82,1.46 -3.58,2.48 -0.76,1.02 -1.13,2.19 -1.13,3.51 0,1.56 0.55,2.81 1.64,3.76 1.1,0.95 2.53,1.69 4.31,2.23 1.78,0.54 3.76,1.06 5.95,1.57 2.19,0.51 4.37,1.08 6.54,1.72 2.17,0.63 4.14,1.46 5.92,2.48 1.78,1.02 3.21,2.41 4.31,4.16 1.1,1.75 1.64,3.97 1.64,6.65 0,2.73 -0.74,5.25 -2.23,7.56 -1.49,2.31 -3.76,4.16 -6.83,5.55 -3.07,1.38 -6.94,2.08 -11.62,2.08 z"
   id="path90" />
	</g>
</g>
</svg>
