<?xml version="1.0" encoding="UTF-8" standalone="no"?>
<!-- Generator: Adobe Illustrator 26.1.0, SVG Export Plug-In . SVG Version: 6.00 Build 0)  -->

<svg
   version="1.1"
   id="Layer_1"
   x="0px"
   y="0px"
   viewBox="0 0 1156.54 749.28003"
   xml:space="preserve"
   sodipodi:docname="ITT_Logo_text.svg"
   inkscape:version="1.2.1 (9c6d41e410, 2022-07-14)"
   width="1156.54"
   height="749.28003"
   xmlns:inkscape="http://www.inkscape.org/namespaces/inkscape"
   xmlns:sodipodi="http://sodipodi.sourceforge.net/DTD/sodipodi-0.dtd"
   xmlns="http://www.w3.org/2000/svg"
   xmlns:svg="http://www.w3.org/2000/svg"><defs
   id="defs93" /><sodipodi:namedview
   id="namedview91"
   pagecolor="#505050"
   bordercolor="#ffffff"
   borderopacity="1"
   inkscape:showpageshadow="0"
   inkscape:pageopacity="0"
   inkscape:pagecheckerboard="1"
   inkscape:deskcolor="#505050"
   showgrid="false"
   inkscape:zoom="0.3337544"
   inkscape:cx="909.35131"
   inkscape:cy="218.72371"
   inkscape:window-width="1920"
   inkscape:window-height="1137"
   inkscape:window-x="1912"
   inkscape:window-y="-8"
   inkscape:window-maximized="1"
   inkscape:current-layer="Layer_1" />
<style
   type="text/css"
   id="style2">
	.st0{display:none;fill:#540B0E;}
	.st1{display:none;fill:#1B263B;}
	.st2{display:none;fill:#003E1F;}
	.st3{display:none;fill:#020F3B;}
	.st4{fill:#00687F;}
	.st5{fill:#00C1D4;}
</style>

<g
   id="g88"
   transform="translate(-421.73,-625.36)">
	<g
   id="g16">
		<path
   class="st4"
   d="m 589.59,890.52 57.58,17.87 v 224.08 H 771.78 V 890.52 Z"
   id="path6" />
		<path
   class="st4"
   d="m 1144.01,890.52 v 298.64 l 17.61,-56.68 h 106.35 V 890.52 Z"
   id="path8" />
		<path
   class="st4"
   d="m 1352.85,768.86 v -85.94 h -251.23 v 103.81 h 308.8 z m -541.74,17.87 h 251.17 V 682.93 H 811.11 Z"
   id="path10" />
		<rect
   x="895.90997"
   y="890.52002"
   class="st4"
   width="123.97"
   height="241.95"
   id="rect12" />
		<path
   class="st5"
   d="M 749.41,682.93 H 647.17 V 786.74 H 771.78 V 625.36 Z"
   id="path14" />
	</g>
	<g
   id="g86">
		<path
   class="st4"
   d="m 421.73,1283.14 v -52.93 h 9.83 v 52.93 z"
   id="path18" />
		<path
   class="st4"
   d="m 450.39,1283.14 v -52.93 h 8.09 l 33.2,40.76 h -4.01 v -40.76 h 9.76 v 52.93 h -8.09 l -33.2,-40.76 h 4.01 v 40.76 z"
   id="path20" />
		<path
   class="st4"
   d="m 532.59,1283.89 c -4.13,0 -8.09,-0.59 -11.87,-1.78 -3.78,-1.18 -6.78,-2.71 -9,-4.58 l 3.4,-7.64 c 2.12,1.66 4.74,3.05 7.86,4.16 3.13,1.11 6.33,1.66 9.6,1.66 2.77,0 5.02,-0.3 6.73,-0.91 1.71,-0.61 2.97,-1.42 3.78,-2.46 0.81,-1.03 1.21,-2.2 1.21,-3.52 0,-1.61 -0.58,-2.91 -1.74,-3.89 -1.16,-0.98 -2.66,-1.76 -4.5,-2.34 -1.84,-0.58 -3.88,-1.12 -6.13,-1.63 -2.24,-0.5 -4.49,-1.1 -6.73,-1.78 -2.24,-0.68 -4.29,-1.56 -6.13,-2.65 -1.84,-1.08 -3.34,-2.53 -4.5,-4.35 -1.16,-1.81 -1.74,-4.13 -1.74,-6.96 0,-2.87 0.77,-5.51 2.31,-7.9 1.54,-2.39 3.88,-4.31 7.03,-5.75 3.15,-1.44 7.15,-2.16 11.99,-2.16 3.18,0 6.33,0.4 9.45,1.21 3.13,0.81 5.85,1.97 8.17,3.48 l -3.1,7.64 c -2.37,-1.41 -4.81,-2.46 -7.34,-3.14 -2.52,-0.68 -4.94,-1.02 -7.26,-1.02 -2.72,0 -4.93,0.33 -6.62,0.98 -1.69,0.66 -2.92,1.51 -3.7,2.57 -0.78,1.06 -1.17,2.27 -1.17,3.63 0,1.61 0.57,2.91 1.7,3.89 1.13,0.98 2.62,1.75 4.46,2.31 1.84,0.55 3.89,1.1 6.16,1.63 2.27,0.53 4.52,1.12 6.77,1.78 2.24,0.66 4.28,1.51 6.13,2.57 1.84,1.06 3.33,2.5 4.46,4.31 1.13,1.82 1.7,4.11 1.7,6.88 0,2.82 -0.77,5.43 -2.31,7.83 -1.54,2.4 -3.89,4.31 -7.07,5.75 -3.15,1.46 -7.16,2.18 -12,2.18 z"
   id="path22" />
		<path
   class="st4"
   d="m 578.27,1283.14 v -44.62 h -17.54 v -8.32 h 44.92 v 8.32 H 588.1 v 44.62 z"
   id="path24" />
		<path
   class="st4"
   d="m 617.59,1283.14 v -52.93 h 9.83 v 52.93 z"
   id="path26" />
		<path
   class="st4"
   d="m 656.99,1283.14 v -44.62 h -17.54 v -8.32 h 44.92 v 8.32 h -17.54 v 44.62 z"
   id="path28" />
		<path
   class="st4"
   d="m 718.09,1283.89 c -7.26,0 -12.94,-2.04 -17.05,-6.13 -4.11,-4.08 -6.16,-9.98 -6.16,-17.7 v -29.87 h 9.83 v 29.49 c 0,5.44 1.17,9.4 3.52,11.87 2.34,2.47 5.66,3.71 9.94,3.71 4.28,0 7.59,-1.23 9.91,-3.71 2.32,-2.47 3.48,-6.43 3.48,-11.87 v -29.49 h 9.68 v 29.87 c 0,7.71 -2.05,13.61 -6.16,17.7 -4.12,4.09 -9.78,6.13 -16.99,6.13 z"
   id="path30" />
		<path
   class="st4"
   d="m 769.28,1283.14 v -44.62 h -17.54 v -8.32 h 44.92 v 8.32 h -17.54 v 44.62 z"
   id="path32" />
		<path
   class="st4"
   d="m 843.84,1283.14 h -9.83 v -52.93 h 38.64 v 8.24 h -28.81 z m -0.83,-28.59 h 26.39 v 8.32 h -26.39 z"
   id="path34" />
		<path
   class="st4"
   d="m 909.48,1283.89 c -7.26,0 -12.94,-2.04 -17.05,-6.13 -4.11,-4.08 -6.16,-9.98 -6.16,-17.7 v -29.87 h 9.83 v 29.49 c 0,5.44 1.17,9.4 3.52,11.87 2.34,2.47 5.66,3.71 9.94,3.71 4.28,0 7.59,-1.23 9.91,-3.71 2.32,-2.47 3.48,-6.43 3.48,-11.87 v -29.49 h 9.68 v 29.87 c 0,7.71 -2.05,13.61 -6.16,17.7 -4.12,4.09 -9.78,6.13 -16.99,6.13 z m -7.26,-58.83 c -1.26,0 -2.33,-0.42 -3.21,-1.25 -0.88,-0.83 -1.32,-1.93 -1.32,-3.29 0,-1.36 0.44,-2.47 1.32,-3.33 0.88,-0.86 1.95,-1.29 3.21,-1.29 1.26,0 2.33,0.43 3.21,1.29 0.88,0.86 1.32,1.97 1.32,3.33 0,1.36 -0.44,2.46 -1.32,3.29 -0.88,0.83 -1.95,1.25 -3.21,1.25 z m 14.67,0 c -1.26,0 -2.33,-0.42 -3.21,-1.25 -0.88,-0.83 -1.32,-1.93 -1.32,-3.29 0,-1.36 0.44,-2.47 1.32,-3.33 0.88,-0.86 1.95,-1.29 3.21,-1.29 1.26,0 2.33,0.43 3.21,1.29 0.88,0.86 1.32,1.97 1.32,3.33 0,1.36 -0.44,2.46 -1.32,3.29 -0.88,0.83 -1.95,1.25 -3.21,1.25 z"
   id="path36" />
		<path
   class="st4"
   d="m 950.92,1283.14 v -52.93 h 21.78 c 4.69,0 8.71,0.76 12.06,2.27 3.35,1.51 5.94,3.68 7.75,6.5 1.81,2.82 2.72,6.18 2.72,10.06 0,3.88 -0.91,7.22 -2.72,10.02 -1.82,2.8 -4.4,4.94 -7.75,6.43 -3.35,1.49 -7.37,2.23 -12.06,2.23 h -16.33 l 4.39,-4.46 v 19.89 h -9.84 z m 9.83,-18.83 -4.39,-4.69 h 15.88 c 4.33,0 7.6,-0.93 9.79,-2.8 2.19,-1.86 3.29,-4.46 3.29,-7.79 0,-3.38 -1.1,-5.97 -3.29,-7.79 -2.19,-1.81 -5.46,-2.72 -9.79,-2.72 h -15.88 l 4.39,-4.84 z m 24.81,18.83 -13.38,-19.21 h 10.51 l 13.46,19.21 z"
   id="path38" />
		<path
   class="st4"
   d="m 1046.88,1283.14 v -44.62 h -17.54 v -8.32 h 44.92 v 8.32 h -17.54 v 44.62 z"
   id="path40" />
		<path
   class="st4"
   d="m 1096.04,1274.89 h 29.87 v 8.24 h -39.7 v -52.93 h 38.64 v 8.24 h -28.81 z m -0.76,-22.68 h 26.32 v 8.09 h -26.32 z"
   id="path42" />
		<path
   class="st4"
   d="m 1165.91,1283.89 c -4.03,0 -7.78,-0.67 -11.23,-2 -3.45,-1.34 -6.45,-3.23 -9,-5.67 -2.55,-2.45 -4.53,-5.33 -5.94,-8.66 -1.41,-3.33 -2.12,-6.96 -2.12,-10.89 0,-3.93 0.71,-7.56 2.12,-10.89 1.41,-3.33 3.4,-6.21 5.97,-8.66 2.57,-2.45 5.57,-4.34 9,-5.67 3.43,-1.34 7.18,-2 11.27,-2 4.34,0 8.29,0.74 11.87,2.23 3.58,1.49 6.6,3.69 9.07,6.62 l -6.35,5.97 c -1.92,-2.07 -4.06,-3.62 -6.43,-4.65 -2.37,-1.03 -4.94,-1.55 -7.71,-1.55 -2.77,0 -5.31,0.45 -7.6,1.36 -2.29,0.91 -4.29,2.19 -5.97,3.86 -1.69,1.66 -3,3.63 -3.93,5.9 -0.93,2.27 -1.4,4.76 -1.4,7.49 0,2.72 0.46,5.22 1.4,7.49 0.93,2.27 2.24,4.24 3.93,5.9 1.69,1.66 3.68,2.95 5.97,3.86 2.29,0.91 4.83,1.36 7.6,1.36 2.77,0 5.34,-0.52 7.71,-1.55 2.37,-1.03 4.51,-2.61 6.43,-4.73 l 6.35,6.05 c -2.47,2.87 -5.5,5.07 -9.07,6.58 -3.57,1.5 -7.55,2.25 -11.94,2.25 z"
   id="path44" />
		<path
   class="st4"
   d="m 1210.75,1283.14 h -9.83 v -52.93 h 9.83 z m 28.13,-22.69 h -28.96 v -8.39 h 28.96 z m -0.75,-30.25 h 9.83 v 52.93 h -9.83 z"
   id="path46" />
		<path
   class="st4"
   d="m 1266.71,1283.14 v -52.93 h 8.09 l 33.2,40.76 h -4.01 v -40.76 h 9.76 v 52.93 h -8.09 l -33.2,-40.76 h 4.01 v 40.76 z"
   id="path48" />
		<path
   class="st4"
   d="m 1332.5,1283.14 v -52.93 h 9.83 v 52.93 z"
   id="path50" />
		<path
   class="st4"
   d="m 1377.57,1283.89 c -4.13,0 -8.09,-0.59 -11.87,-1.78 -3.78,-1.19 -6.78,-2.71 -9,-4.58 l 3.4,-7.64 c 2.12,1.66 4.74,3.05 7.86,4.16 3.13,1.11 6.33,1.66 9.6,1.66 2.77,0 5.02,-0.3 6.73,-0.91 1.71,-0.61 2.97,-1.42 3.78,-2.46 0.81,-1.03 1.21,-2.2 1.21,-3.52 0,-1.61 -0.58,-2.91 -1.74,-3.89 -1.16,-0.98 -2.66,-1.76 -4.5,-2.34 -1.84,-0.58 -3.88,-1.12 -6.13,-1.63 -2.24,-0.5 -4.49,-1.1 -6.73,-1.78 -2.24,-0.68 -4.29,-1.56 -6.13,-2.65 -1.84,-1.08 -3.34,-2.53 -4.5,-4.35 -1.16,-1.81 -1.74,-4.13 -1.74,-6.96 0,-2.87 0.77,-5.51 2.31,-7.9 1.54,-2.39 3.88,-4.31 7.03,-5.75 3.15,-1.44 7.15,-2.16 11.99,-2.16 3.18,0 6.33,0.4 9.45,1.21 3.13,0.81 5.85,1.97 8.17,3.48 l -3.1,7.64 c -2.37,-1.41 -4.81,-2.46 -7.34,-3.14 -2.52,-0.68 -4.94,-1.02 -7.26,-1.02 -2.72,0 -4.93,0.33 -6.62,0.98 -1.69,0.66 -2.92,1.51 -3.7,2.57 -0.78,1.06 -1.17,2.27 -1.17,3.63 0,1.61 0.57,2.91 1.7,3.89 1.13,0.98 2.62,1.75 4.46,2.31 1.84,0.55 3.89,1.1 6.16,1.63 2.27,0.53 4.52,1.12 6.77,1.78 2.24,0.66 4.28,1.51 6.13,2.57 1.84,1.06 3.33,2.5 4.46,4.31 1.13,1.82 1.7,4.11 1.7,6.88 0,2.82 -0.77,5.43 -2.31,7.83 -1.54,2.4 -3.89,4.31 -7.07,5.75 -3.15,1.46 -7.16,2.18 -12,2.18 z"
   id="path52" />
		<path
   class="st4"
   d="m 1437.77,1283.89 c -4.03,0 -7.78,-0.67 -11.23,-2 -3.45,-1.34 -6.45,-3.23 -9,-5.67 -2.55,-2.45 -4.53,-5.33 -5.94,-8.66 -1.41,-3.33 -2.12,-6.96 -2.12,-10.89 0,-3.93 0.71,-7.56 2.12,-10.89 1.41,-3.33 3.4,-6.21 5.97,-8.66 2.57,-2.45 5.57,-4.34 9,-5.67 3.43,-1.34 7.18,-2 11.27,-2 4.34,0 8.29,0.74 11.87,2.23 3.58,1.49 6.6,3.69 9.07,6.62 l -6.35,5.97 c -1.92,-2.07 -4.06,-3.62 -6.43,-4.65 -2.37,-1.03 -4.94,-1.55 -7.71,-1.55 -2.77,0 -5.31,0.45 -7.6,1.36 -2.29,0.91 -4.29,2.19 -5.97,3.86 -1.69,1.66 -3,3.63 -3.93,5.9 -0.93,2.27 -1.4,4.76 -1.4,7.49 0,2.72 0.47,5.22 1.4,7.49 0.93,2.27 2.24,4.24 3.93,5.9 1.69,1.66 3.68,2.95 5.97,3.86 2.29,0.91 4.83,1.36 7.6,1.36 2.77,0 5.34,-0.52 7.71,-1.55 2.37,-1.03 4.51,-2.61 6.43,-4.73 l 6.35,6.05 c -2.47,2.87 -5.5,5.07 -9.07,6.58 -3.58,1.5 -7.56,2.25 -11.94,2.25 z"
   id="path54" />
		<path
   class="st4"
   d="m 1482.61,1283.14 h -9.83 v -52.93 h 9.83 z m 28.13,-22.69 h -28.96 v -8.39 h 28.96 z m -0.76,-30.25 h 9.83 v 52.93 h -9.83 z"
   id="path56" />
		<path
   class="st4"
   d="m 1548.4,1274.89 h 29.87 v 8.24 h -39.7 v -52.93 h 38.64 v 8.24 h -28.81 z m -0.76,-22.68 h 26.32 v 8.09 h -26.32 z"
   id="path58" />
		<path
   class="st4"
   d="m 625.3,1373.88 v -44.62 h -17.54 v -8.32 h 44.92 v 8.32 h -17.54 v 44.62 z"
   id="path60" />
		<path
   class="st4"
   d="m 674.45,1373.88 h -9.83 v -52.93 h 9.83 z m 28.13,-22.69 h -28.96 v -8.39 h 28.96 z m -0.75,-30.24 h 9.83 v 52.93 h -9.83 z"
   id="path62" />
		<path
   class="st4"
   d="m 740.24,1365.64 h 29.87 v 8.24 h -39.7 v -52.93 h 38.64 v 8.24 h -28.81 z m -0.75,-22.69 h 26.32 v 8.09 h -26.32 z"
   id="path64" />
		<path
   class="st4"
   d="m 785.62,1373.88 v -52.93 h 21.78 c 4.69,0 8.71,0.76 12.06,2.27 3.35,1.51 5.94,3.68 7.75,6.5 1.81,2.82 2.72,6.18 2.72,10.06 0,3.88 -0.91,7.22 -2.72,10.02 -1.82,2.8 -4.4,4.94 -7.75,6.43 -3.35,1.49 -7.37,2.23 -12.06,2.23 h -16.33 l 4.39,-4.46 v 19.89 h -9.84 z m 9.83,-18.83 -4.39,-4.69 h 15.88 c 4.33,0 7.6,-0.93 9.79,-2.8 2.19,-1.86 3.29,-4.46 3.29,-7.79 0,-3.38 -1.1,-5.97 -3.29,-7.79 -2.19,-1.81 -5.46,-2.72 -9.79,-2.72 h -15.88 l 4.39,-4.84 z m 24.8,18.83 -13.38,-19.21 h 10.51 l 13.46,19.21 z"
   id="path66" />
		<path
   class="st4"
   d="m 845.43,1373.88 v -52.93 h 8.09 l 23.14,38.64 h -4.23 l 22.76,-38.64 h 8.09 l 0.08,52.93 h -9.3 l -0.08,-38.34 h 1.97 l -19.36,32.29 h -4.39 l -19.66,-32.29 h 2.27 v 38.34 z"
   id="path68" />
		<path
   class="st4"
   d="m 946.99,1374.64 c -4.13,0 -7.94,-0.68 -11.42,-2.04 -3.48,-1.36 -6.5,-3.26 -9.07,-5.71 -2.57,-2.45 -4.56,-5.32 -5.97,-8.62 -1.41,-3.3 -2.12,-6.92 -2.12,-10.85 0,-3.93 0.71,-7.55 2.12,-10.85 1.41,-3.3 3.4,-6.17 5.97,-8.62 2.57,-2.45 5.6,-4.35 9.07,-5.71 3.48,-1.36 7.26,-2.04 11.34,-2.04 4.13,0 7.93,0.68 11.38,2.04 3.45,1.36 6.47,3.26 9.04,5.71 2.57,2.45 4.56,5.32 5.97,8.62 1.41,3.3 2.12,6.92 2.12,10.85 0,3.93 -0.71,7.56 -2.12,10.89 -1.41,3.33 -3.4,6.2 -5.97,8.62 -2.57,2.42 -5.58,4.31 -9.04,5.67 -3.45,1.36 -7.22,2.04 -11.3,2.04 z m -0.08,-8.62 c 2.67,0 5.14,-0.45 7.41,-1.36 2.27,-0.91 4.24,-2.2 5.9,-3.89 1.66,-1.69 2.96,-3.65 3.89,-5.9 0.93,-2.24 1.4,-4.73 1.4,-7.45 0,-2.72 -0.47,-5.2 -1.4,-7.45 -0.93,-2.24 -2.23,-4.21 -3.89,-5.9 -1.66,-1.69 -3.63,-2.99 -5.9,-3.89 -2.27,-0.91 -4.74,-1.36 -7.41,-1.36 -2.67,0 -5.13,0.45 -7.37,1.36 -2.24,0.91 -4.21,2.21 -5.9,3.89 -1.69,1.69 -3,3.66 -3.93,5.9 -0.93,2.24 -1.4,4.73 -1.4,7.45 0,2.67 0.46,5.14 1.4,7.41 0.93,2.27 2.23,4.25 3.89,5.94 1.66,1.69 3.63,2.99 5.9,3.89 2.27,0.9 4.74,1.36 7.41,1.36 z"
   id="path70" />
		<path
   class="st4"
   d="m 990.4,1373.88 v -52.93 h 23.14 c 5.75,0 10.79,1.11 15.12,3.33 4.34,2.22 7.71,5.29 10.13,9.22 2.42,3.93 3.63,8.57 3.63,13.91 0,5.29 -1.21,9.92 -3.63,13.88 -2.42,3.96 -5.8,7.05 -10.13,9.26 -4.34,2.22 -9.38,3.33 -15.12,3.33 z m 9.83,-8.32 h 12.86 c 3.98,0 7.42,-0.76 10.32,-2.27 2.9,-1.51 5.14,-3.63 6.73,-6.35 1.59,-2.72 2.38,-5.9 2.38,-9.53 0,-3.68 -0.79,-6.87 -2.38,-9.57 -1.59,-2.7 -3.83,-4.8 -6.73,-6.31 -2.9,-1.51 -6.34,-2.27 -10.32,-2.27 h -12.86 z"
   id="path72" />
		<path
   class="st4"
   d="m 1068.13,1373.88 v -20.95 l 2.19,6.05 -22.99,-38.04 h 10.51 l 18.45,30.63 h -5.9 l 18.6,-30.63 h 9.68 l -22.99,38.04 2.27,-6.05 v 20.95 z"
   id="path74" />
		<path
   class="st4"
   d="m 1108.89,1373.88 v -52.93 h 8.09 l 33.2,40.76 h -4.01 v -40.76 h 9.76 v 52.93 h -8.09 l -33.2,-40.76 h 4.01 v 40.76 z"
   id="path76" />
		<path
   class="st4"
   d="m 1167.2,1373.88 23.82,-52.93 h 9.68 l 23.9,52.93 h -10.28 l -20.49,-47.72 h 3.93 l -20.42,47.72 z m 10.96,-12.25 2.65,-7.71 h 28.58 l 2.65,7.71 z"
   id="path78" />
		<path
   class="st4"
   d="m 1235.86,1373.88 v -52.93 h 8.09 l 23.14,38.64 h -4.23 l 22.76,-38.64 h 8.09 l 0.08,52.93 h -9.3 l -0.08,-38.34 h 1.97 l -19.36,32.29 h -4.39 l -19.66,-32.29 h 2.27 v 38.34 z"
   id="path80" />
		<path
   class="st4"
   d="m 1312.61,1373.88 v -52.93 h 9.83 v 52.93 z"
   id="path82" />
		<path
   class="st4"
   d="m 1341.28,1373.88 v -52.93 h 9.83 v 52.93 z m 8.77,-12.48 -0.53,-11.65 27.75,-28.81 h 11.04 l -23.06,24.5 -5.45,5.97 z m 28.13,12.48 -20.27,-24.12 6.5,-7.18 25.26,31.31 h -11.49 z"
   id="path84" />
	</g>
</g>
</svg>
